<svg width="182" height="48" viewBox="0 0 182 48" fill="none" xmlns="http://www.w3.org/2000/svg">
<g clip-path="url(#clip0_1_118)">
<path fill-rule="evenodd" clip-rule="evenodd" d="M58.388 28.4278C58.4008 31.7966 60.1023 34.6828 63.428 34.6828C66.33 34.6828 67.2047 33.3896 67.8355 31.9496H73.2622C72.4389 34.7145 70.0089 38.9621 63.2785 38.9621C56.0195 38.9621 52.9305 33.4135 52.9305 27.6138C52.9305 20.7568 56.4504 15.6762 63.5097 15.6762C71.0394 15.6762 73.5701 21.2803 73.5701 26.5614C73.5844 27.1839 73.5598 27.8067 73.4963 28.4262H58.388V28.4278ZM68.1319 25.007C68.0882 22.0569 66.7743 19.6216 63.4837 19.6216C60.1897 19.6216 58.815 21.8884 58.5185 25.007H68.1319ZM47.4692 16.1959C45.0467 23.6643 42.7909 30.3557 42.1892 33.6264H42.1463C41.6238 30.917 39.7041 24.2564 37.2765 16.1957H30C31.0205 16.1957 31.8597 17.3029 31.9701 17.6844L39.1173 38.4432H44.8738L52.8907 16.1959H47.4692ZM152 27.2653C152 33.9158 148.051 39 141.015 39C134.224 39 130.214 34.0541 130.214 27.3699C130.214 20.5764 134.281 15.618 141.296 15.618C147.785 15.618 152 20.2599 152 27.2653ZM135.749 27.3091C135.749 31.8101 137.812 34.7031 141.159 34.7031C144.564 34.7031 146.465 31.8709 146.465 27.3391C146.465 22.5464 144.546 19.9151 141.071 19.9151C137.742 19.9151 135.749 22.4595 135.749 27.3091ZM112.741 20.2753V16.1402H105.549C106.513 16.1402 107.193 16.8091 107.282 17.4983C107.298 18.8258 107.305 20.3449 107.305 22.2043V38.4813H112.741V28.3674C112.741 22.4031 115.525 20.2526 120.073 20.2834V16.1501C116.285 16.2016 113.794 17.5642 112.741 20.2753ZM81.9271 20.2753V16.1402H74.7358C75.6998 16.1402 76.3801 16.8091 76.4682 17.4983C76.484 18.8258 76.4918 20.3449 76.4918 22.2043V38.4813H81.9271V28.3674C81.9271 22.4031 84.7127 20.2526 89.2591 20.2834V16.1501C85.472 16.2016 82.9807 17.5642 81.9271 20.2753ZM122.273 16.1394V38.4784H127.708V16.1394H122.273ZM127.695 9H122.273V15.196C122.276 15.196 122.279 15.196 122.283 15.196C123.715 15.1969 125.089 14.6311 126.104 13.623C127.118 12.6149 127.69 11.2467 127.693 9.81872L127.695 9ZM104.213 20.2834V16.1392H99.6236V16.1341H94.1883V16.1392H90.5815V20.2834H94.1883V32.7876C94.1883 36.63 95.67 38.7827 99.7557 38.7827C100.95 38.7827 102.521 38.7561 103.662 38.3607V34.5596C103.133 34.6397 102.598 34.6761 102.063 34.6684C100.148 34.6684 99.623 33.8562 99.623 32.0011V20.2834H104.213H104.213ZM99.5965 9.8177V9H94.1759V15.1958C94.1793 15.1958 94.1824 15.1958 94.1858 15.1958C95.6183 15.1964 96.9924 14.6304 98.0068 13.6222C99.0211 12.6139 99.5929 11.2457 99.5965 9.8177Z" fill="black"/>
</g>
<defs>
<clipPath id="clip0_1_118">
<rect width="122" height="30" fill="white" transform="translate(30 9)"/>
</clipPath>
</defs>
</svg>
